<?xml version="1.0" encoding="utf-8"?>
<!-- Generator: Adobe Illustrator 16.0.0, SVG Export Plug-In . SVG Version: 6.00 Build 0)  -->
<!DOCTYPE svg PUBLIC "-//W3C//DTD SVG 1.1//EN" "http://www.w3.org/Graphics/SVG/1.1/DTD/svg11.dtd">
<svg version="1.1" id="Layer_1" xmlns="http://www.w3.org/2000/svg" xmlns:xlink="http://www.w3.org/1999/xlink" x="0px" y="0px"
	 width="100px" height="100px" viewBox="0 0 100 100" enable-background="new 0 0 100 100" xml:space="preserve">
<path fill="#FFFFFF" d="M97.4,50c0,1.83-0.74,3.48-1.94,4.68c-1.2,1.2-2.86,1.94-4.69,1.94H56.62V90.77
	c0,3.66-2.96,6.631-6.62,6.631c-1.83,0-3.48-0.74-4.68-1.94c-1.2-1.2-1.94-2.86-1.94-4.69V56.62H9.23c-3.66,0-6.63-2.96-6.63-6.62
	c0-1.83,0.74-3.48,1.94-4.68c1.2-1.2,2.86-1.94,4.69-1.94h34.15V9.23c0-3.66,2.96-6.63,6.62-6.63c1.83,0,3.48,0.74,4.68,1.94
	c1.2,1.2,1.94,2.86,1.94,4.69v34.15H90.77C94.43,43.38,97.4,46.34,97.4,50z"/>
</svg>
