<?xml version="1.0" encoding="utf-8"?>
<!-- Generator: Adobe Illustrator 16.0.0, SVG Export Plug-In . SVG Version: 6.00 Build 0)  -->
<!DOCTYPE svg PUBLIC "-//W3C//DTD SVG 1.1//EN" "http://www.w3.org/Graphics/SVG/1.1/DTD/svg11.dtd">
<svg version="1.1" id="Layer_1" xmlns="http://www.w3.org/2000/svg" xmlns:xlink="http://www.w3.org/1999/xlink" x="0px" y="0px"
	 width="100px" height="100px" viewBox="0 0 100 100" enable-background="new 0 0 100 100" xml:space="preserve">
<path fill="#FFFFFF" d="M58.489,90.452c0,5.598-4.17,8.134-9.313,8.134l0,0c-5.143,0-9.313-2.536-9.313-8.134V9.325
	c0-5.598,4.169-8.135,9.313-8.135l0,0c5.143,0,9.313,2.537,9.313,8.135V90.452z"/>
<path fill="#FFFFFF" d="M8.613,59.201c-5.598,0-8.134-4.17-8.134-9.313l0,0c0-5.143,2.536-9.313,8.134-9.313H89.74
	c5.598,0,8.135,4.169,8.135,9.313l0,0c0,5.143-2.537,9.313-8.135,9.313H8.613z"/>
</svg>
